<?xml version="1.0" standalone="no"?>
<!DOCTYPE svg PUBLIC "-//W3C//DTD SVG 20010904//EN"
 "http://www.w3.org/TR/2001/REC-SVG-20010904/DTD/svg10.dtd">
<svg version="1.0" xmlns="http://www.w3.org/2000/svg"
 width="1024.000000pt" height="1024.000000pt" viewBox="0 0 1024.000000 1024.000000"
 preserveAspectRatio="xMidYMid meet">
<metadata>
Created by potrace 1.14, written by Peter Selinger 2001-2017
</metadata>
<g transform="translate(0.000000,1024.000000) scale(0.100000,-0.100000)"
fill="#000000" stroke="none">
<path d="M4780 10229 c-1112 -74 -2168 -509 -3015 -1243 -158 -137 -445 -430
-575 -586 -916 -1102 -1326 -2502 -1149 -3920 125 -1006 544 -1943 1213 -2715
137 -158 430 -445 586 -575 1102 -916 2502 -1326 3920 -1149 1006 125 1943
544 2715 1213 158 137 445 430 575 586 916 1102 1326 2502 1149 3920 -125
1006 -544 1943 -1213 2715 -137 158 -430 445 -586 575 -939 780 -2098 1197
-3305 1188 -104 0 -246 -5 -315 -9z m-232 -2479 c35 -18 82 -54 104 -79 58
-66 1064 -1890 1079 -1957 6 -29 10 -87 7 -130 -8 -146 -93 -270 -226 -332
l-57 -27 -1075 0 -1075 0 -65 31 c-36 17 -84 51 -108 75 -110 112 -146 301
-85 440 11 24 246 454 522 954 362 655 514 922 544 953 85 87 151 113 282 109
80 -3 97 -7 153 -37z m2422 -2741 c146 -31 271 -185 287 -353 11 -120 10 -121
-533 -1105 -278 -504 -520 -935 -538 -957 -134 -177 -395 -194 -550 -36 -65
66 -1068 1878 -1092 1974 -50 194 60 401 249 469 49 17 103 18 1089 19 710 0
1053 -3 1088 -11z"/>
</g>
</svg>
